<svg width="25" height="25" viewBox="0 0 25 25" fill="none" xmlns="http://www.w3.org/2000/svg">
<path d="M19.4891 8.87426C19.3923 8.78151 19.2771 8.70789 19.1501 8.65765C19.0232 8.60741 18.887 8.58154 18.7495 8.58154C18.612 8.58154 18.4759 8.60741 18.3489 8.65765C18.222 8.70789 18.1068 8.78151 18.0099 8.87426L13.2391 13.4065C13.1423 13.4993 13.0271 13.5729 12.9001 13.6232C12.7732 13.6734 12.637 13.6993 12.4995 13.6993C12.362 13.6993 12.2259 13.6734 12.0989 13.6232C11.972 13.5729 11.8568 13.4993 11.7599 13.4065L6.98911 8.87426C6.89227 8.78151 6.77706 8.70789 6.65012 8.65765C6.52319 8.60741 6.38704 8.58154 6.24952 8.58154C6.11201 8.58154 5.97586 8.60741 5.84892 8.65765C5.72199 8.70789 5.60678 8.78151 5.50994 8.87426C5.31593 9.05967 5.20703 9.31048 5.20703 9.57191C5.20703 9.83335 5.31593 10.0842 5.50994 10.2696L10.2912 14.8117C10.8771 15.3677 11.6714 15.68 12.4995 15.68C13.3277 15.68 14.1219 15.3677 14.7079 14.8117L19.4891 10.2696C19.6831 10.0842 19.792 9.83335 19.792 9.57191C19.792 9.31048 19.6831 9.05967 19.4891 8.87426Z" fill="#454444"/>
</svg>
