<svg width="13" height="13" viewBox="0 0 13 13" fill="none" xmlns="http://www.w3.org/2000/svg">
<path d="M10.1347 4.44684C10.0843 4.39608 10.0244 4.35578 9.95842 4.32828C9.89241 4.30078 9.82161 4.28662 9.7501 4.28662C9.6786 4.28662 9.6078 4.30078 9.54179 4.32828C9.47578 4.35578 9.41588 4.39608 9.36552 4.44684L6.88469 6.92767C6.83433 6.97844 6.77442 7.01874 6.70842 7.04624C6.64241 7.07374 6.57161 7.0879 6.5001 7.0879C6.4286 7.0879 6.3578 7.07374 6.29179 7.04624C6.22578 7.01874 6.16588 6.97844 6.11552 6.92767L3.63469 4.44684C3.58433 4.39608 3.52442 4.35578 3.45842 4.32828C3.39241 4.30078 3.32161 4.28662 3.2501 4.28662C3.1786 4.28662 3.1078 4.30078 3.04179 4.32828C2.97578 4.35578 2.91588 4.39608 2.86552 4.44684C2.76463 4.54833 2.70801 4.68562 2.70801 4.82872C2.70801 4.97182 2.76463 5.10911 2.86552 5.21059L5.35177 7.69684C5.65646 8.00115 6.06948 8.17207 6.5001 8.17207C6.93073 8.17207 7.34375 8.00115 7.64844 7.69684L10.1347 5.21059C10.2356 5.10911 10.2922 4.97182 10.2922 4.82872C10.2922 4.68562 10.2356 4.54833 10.1347 4.44684Z" fill="white"/>
</svg>
