<svg width="25" height="25" viewBox="0 0 25 25" fill="none" xmlns="http://www.w3.org/2000/svg">
<g clip-path="url(#clip0_185_6222)">
<path d="M25 3.125H4.41875L4.375 2.75937C4.28547 1.99939 3.92019 1.29868 3.34843 0.790081C2.77666 0.281483 2.03815 0.000356035 1.27292 0L0 0V2.08333H1.27292C1.52806 2.08337 1.77431 2.17704 1.96497 2.34658C2.15563 2.51612 2.27744 2.74974 2.30729 3.00312L3.95833 17.0323C4.04787 17.7923 4.41314 18.493 4.98491 19.0016C5.55667 19.5102 6.29518 19.7913 7.06042 19.7917H20.8333V17.7083H7.06042C6.80512 17.7083 6.55873 17.6145 6.36805 17.4447C6.17736 17.2749 6.05566 17.0411 6.02604 16.7875L5.88958 15.625H22.7458L25 3.125ZM21.0042 13.5417H5.64479L4.66458 5.20833H22.5073L21.0042 13.5417Z" fill="#454444"/>
<path d="M7.29134 25.0006C8.44193 25.0006 9.37467 24.0679 9.37467 22.9173C9.37467 21.7667 8.44193 20.834 7.29134 20.834C6.14075 20.834 5.20801 21.7667 5.20801 22.9173C5.20801 24.0679 6.14075 25.0006 7.29134 25.0006Z" fill="#454444"/>
<path d="M17.7083 25.0006C18.8589 25.0006 19.7917 24.0679 19.7917 22.9173C19.7917 21.7667 18.8589 20.834 17.7083 20.834C16.5577 20.834 15.625 21.7667 15.625 22.9173C15.625 24.0679 16.5577 25.0006 17.7083 25.0006Z" fill="#454444"/>
</g>
<defs>
<clipPath id="clip0_185_6222">
<rect width="25" height="25" fill="white"/>
</clipPath>
</defs>
</svg>
