<svg width="25" height="25" viewBox="0 0 25 25" fill="none" xmlns="http://www.w3.org/2000/svg">
<g clip-path="url(#clip0_185_6217)">
<path d="M24.6949 23.2225L18.4772 17.0048C20.1716 14.9325 21.0047 12.2882 20.8041 9.61892C20.6036 6.94962 19.3847 4.45951 17.3997 2.66367C15.4147 0.867826 12.8153 -0.0963599 10.1393 -0.0294517C7.46336 0.0374564 4.91545 1.13034 3.02265 3.02314C1.12985 4.91594 0.0369681 7.46385 -0.02994 10.1398C-0.0968482 12.8158 0.867338 15.4152 2.66318 17.4002C4.45903 19.3852 6.94913 20.6041 9.61843 20.8046C12.2877 21.0052 14.932 20.1721 17.0043 18.4777L23.222 24.6954C23.4185 24.8852 23.6816 24.9902 23.9547 24.9878C24.2278 24.9854 24.4891 24.8759 24.6822 24.6827C24.8754 24.4896 24.9849 24.2283 24.9873 23.9552C24.9897 23.6821 24.8847 23.419 24.6949 23.2225ZM10.4168 18.7506C8.76863 18.7506 7.15746 18.2619 5.78705 17.3462C4.41664 16.4305 3.34854 15.129 2.71781 13.6063C2.08708 12.0836 1.92205 10.4081 2.24359 8.79154C2.56514 7.17503 3.35881 5.69018 4.52425 4.52474C5.68969 3.3593 7.17455 2.56563 8.79105 2.24408C10.4076 1.92254 12.0831 2.08757 13.6058 2.7183C15.1286 3.34903 16.43 4.41713 17.3457 5.78754C18.2614 7.15795 18.7501 8.76912 18.7501 10.4173C18.7477 12.6267 17.8689 14.7448 16.3066 16.3071C14.7444 17.8694 12.6262 18.7481 10.4168 18.7506Z" fill="#454444"/>
</g>
<defs>
<clipPath id="clip0_185_6217">
<rect width="25" height="25" fill="white"/>
</clipPath>
</defs>
</svg>
