<svg width="20" height="20" viewBox="0 0 20 20" fill="none" xmlns="http://www.w3.org/2000/svg">
<g clip-path="url(#clip0_185_6592)">
<path d="M12.4838 5.85236V2.51903C12.4838 2.29802 12.5716 2.08605 12.7279 1.92977C12.8842 1.77349 13.0961 1.6857 13.3171 1.6857C13.5382 1.6857 13.7501 1.77349 13.9064 1.92977C14.0627 2.08605 14.1505 2.29802 14.1505 2.51903V4.69486C14.6755 4.16653 18.068 0.756529 18.5613 0.263196C18.6382 0.183604 18.7301 0.120119 18.8318 0.0764447C18.9335 0.0327706 19.0428 0.00978204 19.1535 0.00882053C19.2641 0.00785901 19.3739 0.0289438 19.4763 0.0708445C19.5787 0.112745 19.6717 0.174623 19.75 0.252867C19.8282 0.331111 19.8901 0.424154 19.932 0.526568C19.9739 0.628981 19.995 0.738714 19.994 0.849364C19.9931 0.960013 19.9701 1.06936 19.9264 1.17103C19.8827 1.2727 19.8192 1.36466 19.7396 1.44153C19.2463 1.93486 15.8713 5.32903 15.3496 5.85236H17.4838C17.7048 5.85236 17.9168 5.94016 18.0731 6.09644C18.2293 6.25272 18.3171 6.46468 18.3171 6.6857C18.3171 6.90671 18.2293 7.11867 18.0731 7.27495C17.9168 7.43123 17.7048 7.51903 17.4838 7.51903H14.1505C13.7084 7.51903 13.2845 7.34343 12.972 7.03087C12.6594 6.71831 12.4838 6.29439 12.4838 5.85236ZM19.2296 13.9682C19.7126 14.4525 19.9838 15.1085 19.9838 15.7924C19.9838 16.4763 19.7126 17.1323 19.2296 17.6165L18.4696 18.4915C11.6438 25.0232 -4.96286 8.42153 1.46964 1.57486L2.42798 0.741529C2.91268 0.271984 3.56275 0.0121449 4.23756 0.0182271C4.91237 0.0243093 5.55765 0.295823 6.03381 0.774029C6.05964 0.799029 7.60298 2.8057 7.60298 2.8057C8.05958 3.28781 8.31363 3.92684 8.3127 4.59086C8.31177 5.25488 8.05592 5.89319 7.59798 6.37403L6.63298 7.58736C7.16714 8.88488 7.95236 10.0641 8.94355 11.0573C9.93474 12.0505 11.1124 12.8381 12.4088 13.3749L13.6296 12.404C14.1095 11.9449 14.7478 11.6882 15.412 11.6872C16.0761 11.6863 16.7151 11.9412 17.1963 12.399C17.1963 12.399 19.2038 13.9432 19.2296 13.9682ZM18.0838 15.1799C18.0838 15.1799 16.0896 13.6449 16.0638 13.6199C15.8921 13.4496 15.6602 13.3541 15.4184 13.3541C15.1766 13.3541 14.9447 13.4496 14.773 13.6199C14.7505 13.6415 13.0696 14.9815 13.0696 14.9815C12.9564 15.0717 12.8216 15.1308 12.6785 15.153C12.5355 15.1752 12.3891 15.1598 12.2538 15.1082C10.5733 14.483 9.04692 13.5037 7.77805 12.2369C6.50919 10.97 5.52754 9.44518 4.89964 7.7657C4.84398 7.62857 4.82583 7.4791 4.84706 7.33264C4.8683 7.18619 4.92815 7.04802 5.02048 6.93236C5.02048 6.93236 6.36048 5.25403 6.38298 5.23236C6.5532 5.06068 6.64871 4.82871 6.64871 4.58695C6.64871 4.34518 6.5532 4.11321 6.38298 3.94153C6.35798 3.91653 4.82298 1.9207 4.82298 1.9207C4.64873 1.76445 4.42131 1.68078 4.18735 1.68682C3.95339 1.69286 3.7306 1.78816 3.56464 1.9532L2.60631 2.78653C-2.09536 8.43903 12.298 22.034 17.2505 17.3557L18.0105 16.4799C18.1897 16.3154 18.2976 16.0876 18.3113 15.8448C18.325 15.602 18.2434 15.3634 18.0838 15.1799Z" fill="white"/>
</g>
<defs>
<clipPath id="clip0_185_6592">
<rect width="20" height="20" fill="white"/>
</clipPath>
</defs>
</svg>
