<svg width="25" height="25" viewBox="0 0 25 25" fill="none" xmlns="http://www.w3.org/2000/svg">
<g clip-path="url(#clip0_185_6219)">
<path d="M21.875 25.0007H19.7917V19.7475C19.7908 18.9309 19.4661 18.1479 18.8886 17.5704C18.3111 16.9929 17.5281 16.6681 16.7115 16.6673H8.28854C7.47187 16.6681 6.68889 16.9929 6.11142 17.5704C5.53395 18.1479 5.20916 18.9309 5.20833 19.7475V25.0007H3.125V19.7475C3.12665 18.3786 3.6712 17.0662 4.63919 16.0982C5.60719 15.1302 6.91959 14.5856 8.28854 14.584H16.7115C18.0804 14.5856 19.3928 15.1302 20.3608 16.0982C21.3288 17.0662 21.8733 18.3786 21.875 19.7475V25.0007Z" fill="#454444"/>
<path d="M12.5 12.5C11.2639 12.5 10.0555 12.1334 9.02769 11.4467C7.99988 10.7599 7.1988 9.78381 6.72576 8.64177C6.25271 7.49974 6.12894 6.24307 6.37009 5.03069C6.61125 3.81831 7.20651 2.70466 8.08059 1.83059C8.95466 0.956507 10.0683 0.361252 11.2807 0.120095C12.4931 -0.121063 13.7497 0.00270804 14.8918 0.475756C16.0338 0.948803 17.0099 1.74988 17.6967 2.77769C18.3834 3.8055 18.75 5.01387 18.75 6.25C18.7484 7.9071 18.0893 9.49585 16.9176 10.6676C15.7459 11.8393 14.1571 12.4983 12.5 12.5ZM12.5 2.08334C11.6759 2.08334 10.8703 2.32771 10.1851 2.78555C9.49992 3.24339 8.96587 3.89413 8.65051 4.65549C8.33514 5.41685 8.25263 6.25462 8.4134 7.06288C8.57417 7.87113 8.97101 8.61356 9.55373 9.19628C10.1364 9.779 10.8789 10.1758 11.6871 10.3366C12.4954 10.4974 13.3332 10.4149 14.0945 10.0995C14.8559 9.78414 15.5066 9.25008 15.9645 8.56488C16.4223 7.87967 16.6667 7.07409 16.6667 6.25C16.6667 5.14493 16.2277 4.08513 15.4463 3.30372C14.6649 2.52232 13.6051 2.08334 12.5 2.08334Z" fill="#454444"/>
</g>
<defs>
<clipPath id="clip0_185_6219">
<rect width="25" height="25" fill="white"/>
</clipPath>
</defs>
</svg>
