<svg width="107" height="31" viewBox="0 0 107 31" fill="none" xmlns="http://www.w3.org/2000/svg">
<path d="M0.522727 30V0.90909H4.04545V26.875H17.5682V30H0.522727ZM46.4354 15.4545C46.4354 18.5227 45.8814 21.1742 44.7734 23.4091C43.6655 25.6439 42.1456 27.3674 40.2138 28.5795C38.282 29.7917 36.0755 30.3977 33.5945 30.3977C31.1134 30.3977 28.907 29.7917 26.9751 28.5795C25.0433 27.3674 23.5234 25.6439 22.4155 23.4091C21.3075 21.1742 20.7536 18.5227 20.7536 15.4545C20.7536 12.3864 21.3075 9.73485 22.4155 7.5C23.5234 5.26515 25.0433 3.54167 26.9751 2.32955C28.907 1.11742 31.1134 0.511363 33.5945 0.511363C36.0755 0.511363 38.282 1.11742 40.2138 2.32955C42.1456 3.54167 43.6655 5.26515 44.7734 7.5C45.8814 9.73485 46.4354 12.3864 46.4354 15.4545ZM43.0263 15.4545C43.0263 12.9356 42.6049 10.8097 41.7621 9.0767C40.9287 7.34375 39.7971 6.0322 38.3672 5.14205C36.9467 4.25189 35.3558 3.80682 33.5945 3.80682C31.8331 3.80682 30.2375 4.25189 28.8075 5.14205C27.3871 6.0322 26.2554 7.34375 25.4126 9.0767C24.5793 10.8097 24.1626 12.9356 24.1626 15.4545C24.1626 17.9735 24.5793 20.0994 25.4126 21.8324C26.2554 23.5653 27.3871 24.8769 28.8075 25.767C30.2375 26.6572 31.8331 27.1023 33.5945 27.1023C35.3558 27.1023 36.9467 26.6572 38.3672 25.767C39.7971 24.8769 40.9287 23.5653 41.7621 21.8324C42.6049 20.0994 43.0263 17.9735 43.0263 15.4545ZM72.245 10C71.9325 9.04356 71.5206 8.18655 71.0092 7.42898C70.5073 6.66193 69.906 6.00852 69.2053 5.46875C68.514 4.92898 67.728 4.51704 66.8473 4.23295C65.9666 3.94886 65.0007 3.80682 63.9496 3.80682C62.2261 3.80682 60.6589 4.25189 59.2479 5.14205C57.8369 6.0322 56.7147 7.34375 55.8814 9.0767C55.0481 10.8097 54.6314 12.9356 54.6314 15.4545C54.6314 17.9735 55.0528 20.0994 55.8956 21.8324C56.7384 23.5653 57.8795 24.8769 59.3189 25.767C60.7583 26.6572 62.3776 27.1023 64.1768 27.1023C65.8435 27.1023 67.3113 26.7472 68.5803 26.0369C69.8587 25.3172 70.853 24.304 71.5632 22.9972C72.2829 21.6809 72.6428 20.1326 72.6428 18.3523L73.7223 18.5795H64.9723V15.4545H76.0518V18.5795C76.0518 20.9754 75.5405 23.0587 74.5178 24.8295C73.5045 26.6004 72.103 27.9735 70.3132 28.9489C68.5329 29.9148 66.4875 30.3977 64.1768 30.3977C61.6011 30.3977 59.3378 29.7917 57.3871 28.5795C55.4458 27.3674 53.9306 25.6439 52.8416 23.4091C51.7621 21.1742 51.2223 18.5227 51.2223 15.4545C51.2223 13.1534 51.5301 11.0843 52.1456 9.24716C52.7706 7.40057 53.6513 5.8286 54.7876 4.53125C55.924 3.2339 57.2687 2.23958 58.8217 1.5483C60.3748 0.857007 62.084 0.511363 63.9496 0.511363C65.4837 0.511363 66.9136 0.74337 68.2393 1.20739C69.5746 1.66193 70.763 2.3106 71.8047 3.15341C72.8558 3.98674 73.7318 4.98579 74.4325 6.15057C75.1333 7.30587 75.6162 8.58902 75.8814 10H72.245ZM106.631 15.4545C106.631 18.5227 106.077 21.1742 104.969 23.4091C103.861 25.6439 102.341 27.3674 100.409 28.5795C98.4773 29.7917 96.2708 30.3977 93.7898 30.3977C91.3087 30.3977 89.1023 29.7917 87.1705 28.5795C85.2386 27.3674 83.7188 25.6439 82.6108 23.4091C81.5028 21.1742 80.9489 18.5227 80.9489 15.4545C80.9489 12.3864 81.5028 9.73485 82.6108 7.5C83.7188 5.26515 85.2386 3.54167 87.1705 2.32955C89.1023 1.11742 91.3087 0.511363 93.7898 0.511363C96.2708 0.511363 98.4773 1.11742 100.409 2.32955C102.341 3.54167 103.861 5.26515 104.969 7.5C106.077 9.73485 106.631 12.3864 106.631 15.4545ZM103.222 15.4545C103.222 12.9356 102.8 10.8097 101.957 9.0767C101.124 7.34375 99.9924 6.0322 98.5625 5.14205C97.142 4.25189 95.5511 3.80682 93.7898 3.80682C92.0284 3.80682 90.4328 4.25189 89.0028 5.14205C87.5824 6.0322 86.4508 7.34375 85.608 9.0767C84.7746 10.8097 84.358 12.9356 84.358 15.4545C84.358 17.9735 84.7746 20.0994 85.608 21.8324C86.4508 23.5653 87.5824 24.8769 89.0028 25.767C90.4328 26.6572 92.0284 27.1023 93.7898 27.1023C95.5511 27.1023 97.142 26.6572 98.5625 25.767C99.9924 24.8769 101.124 23.5653 101.957 21.8324C102.8 20.0994 103.222 17.9735 103.222 15.4545Z" fill="#454444"/>
</svg>
