<svg width="171" height="49" viewBox="0 0 171 49" fill="none" xmlns="http://www.w3.org/2000/svg">
<path d="M0.636364 48V1.45454H6.27273V43H27.9091V48H0.636364ZM74.0966 24.7273C74.0966 29.6364 73.2102 33.8788 71.4375 37.4545C69.6648 41.0303 67.233 43.7879 64.142 45.7273C61.0511 47.6667 57.5208 48.6364 53.5511 48.6364C49.5814 48.6364 46.0511 47.6667 42.9602 45.7273C39.8693 43.7879 37.4375 41.0303 35.6648 37.4545C33.892 33.8788 33.0057 29.6364 33.0057 24.7273C33.0057 19.8182 33.892 15.5758 35.6648 12C37.4375 8.42424 39.8693 5.66667 42.9602 3.72727C46.0511 1.78788 49.5814 0.81818 53.5511 0.81818C57.5208 0.81818 61.0511 1.78788 64.142 3.72727C67.233 5.66667 69.6648 8.42424 71.4375 12C73.2102 15.5758 74.0966 19.8182 74.0966 24.7273ZM68.642 24.7273C68.642 20.697 67.9678 17.2955 66.6193 14.5227C65.286 11.75 63.4754 9.65151 61.1875 8.22727C58.9148 6.80303 56.3693 6.09091 53.5511 6.09091C50.733 6.09091 48.1799 6.80303 45.892 8.22727C43.6193 9.65151 41.8087 11.75 40.4602 14.5227C39.1269 17.2955 38.4602 20.697 38.4602 24.7273C38.4602 28.7576 39.1269 32.1591 40.4602 34.9318C41.8087 37.7045 43.6193 39.803 45.892 41.2273C48.1799 42.6515 50.733 43.3636 53.5511 43.3636C56.3693 43.3636 58.9148 42.6515 61.1875 41.2273C63.4754 39.803 65.286 37.7045 66.6193 34.9318C67.9678 32.1591 68.642 28.7576 68.642 24.7273ZM115.392 16C114.892 14.4697 114.233 13.0985 113.415 11.8864C112.612 10.6591 111.65 9.61363 110.528 8.75C109.422 7.88636 108.165 7.22727 106.756 6.77272C105.347 6.31818 103.801 6.09091 102.119 6.09091C99.3617 6.09091 96.8542 6.80303 94.5966 8.22727C92.339 9.65151 90.5436 11.75 89.2102 14.5227C87.8769 17.2955 87.2102 20.697 87.2102 24.7273C87.2102 28.7576 87.8845 32.1591 89.233 34.9318C90.5814 37.7045 92.4072 39.803 94.7102 41.2273C97.0133 42.6515 99.6042 43.3636 102.483 43.3636C105.15 43.3636 107.498 42.7955 109.528 41.6591C111.574 40.5076 113.165 38.8864 114.301 36.7955C115.453 34.6894 116.028 32.2121 116.028 29.3636L117.756 29.7273H103.756V24.7273H121.483V29.7273C121.483 33.5606 120.665 36.8939 119.028 39.7273C117.407 42.5606 115.165 44.7576 112.301 46.3182C109.453 47.8636 106.18 48.6364 102.483 48.6364C98.3617 48.6364 94.7405 47.6667 91.6193 45.7273C88.5133 43.7879 86.089 41.0303 84.3466 37.4545C82.6193 33.8788 81.7557 29.6364 81.7557 24.7273C81.7557 21.0455 82.2481 17.7348 83.233 14.7955C84.233 11.8409 85.642 9.32576 87.4602 7.25C89.2784 5.17424 91.4299 3.58333 93.9148 2.47727C96.3996 1.37121 99.1345 0.81818 102.119 0.81818C104.574 0.81818 106.862 1.18939 108.983 1.93182C111.119 2.65909 113.021 3.69697 114.688 5.04545C116.369 6.37879 117.771 7.97727 118.892 9.84091C120.013 11.6894 120.786 13.7424 121.21 16H115.392ZM170.409 24.7273C170.409 29.6364 169.523 33.8788 167.75 37.4545C165.977 41.0303 163.545 43.7879 160.455 45.7273C157.364 47.6667 153.833 48.6364 149.864 48.6364C145.894 48.6364 142.364 47.6667 139.273 45.7273C136.182 43.7879 133.75 41.0303 131.977 37.4545C130.205 33.8788 129.318 29.6364 129.318 24.7273C129.318 19.8182 130.205 15.5758 131.977 12C133.75 8.42424 136.182 5.66667 139.273 3.72727C142.364 1.78788 145.894 0.81818 149.864 0.81818C153.833 0.81818 157.364 1.78788 160.455 3.72727C163.545 5.66667 165.977 8.42424 167.75 12C169.523 15.5758 170.409 19.8182 170.409 24.7273ZM164.955 24.7273C164.955 20.697 164.28 17.2955 162.932 14.5227C161.598 11.75 159.788 9.65151 157.5 8.22727C155.227 6.80303 152.682 6.09091 149.864 6.09091C147.045 6.09091 144.492 6.80303 142.205 8.22727C139.932 9.65151 138.121 11.75 136.773 14.5227C135.439 17.2955 134.773 20.697 134.773 24.7273C134.773 28.7576 135.439 32.1591 136.773 34.9318C138.121 37.7045 139.932 39.803 142.205 41.2273C144.492 42.6515 147.045 43.3636 149.864 43.3636C152.682 43.3636 155.227 42.6515 157.5 41.2273C159.788 39.803 161.598 37.7045 162.932 34.9318C164.28 32.1591 164.955 28.7576 164.955 24.7273Z" fill="#454444"/>
</svg>
