<svg width="123" height="15" viewBox="0 0 123 15" fill="none" xmlns="http://www.w3.org/2000/svg">
<g clip-path="url(#clip0_114_475)">
<path d="M11.3554 13.6006L6.99964 10.3993L2.64389 13.6006L4.31631 8.43055L-0.0371094 5.24963H5.33772L6.99964 0.0708008L8.66156 5.24963H14.0358L9.68297 8.43055L11.3554 13.6006ZM6.99964 8.95147L9.13347 10.5201L8.31681 7.98605L10.4629 6.4163H7.81047L6.99964 3.88988L6.18881 6.4163H3.53581L5.68422 7.98605L4.86756 10.5201L6.99964 8.95147Z" fill="#454444"/>
</g>
<g clip-path="url(#clip1_114_475)">
<path d="M30.3554 13.6006L25.9996 10.3993L21.6439 13.6006L23.3163 8.43055L18.9629 5.24963H24.3377L25.9996 0.0708008L27.6616 5.24963H33.0358L28.683 8.43055L30.3554 13.6006ZM25.9996 8.95147L28.1335 10.5201L27.3168 7.98605L29.4629 6.4163H26.8105L25.9996 3.88988L25.1888 6.4163H22.5358L24.6842 7.98605L23.8676 10.5201L25.9996 8.95147Z" fill="#454444"/>
</g>
<g clip-path="url(#clip2_114_475)">
<path d="M49.3554 13.6006L44.9996 10.3993L40.6439 13.6006L42.3163 8.43055L37.9629 5.24963H43.3377L44.9996 0.0708008L46.6616 5.24963H52.0358L47.683 8.43055L49.3554 13.6006ZM44.9996 8.95147L47.1335 10.5201L46.3168 7.98605L48.4629 6.4163H45.8105L44.9996 3.88988L44.1888 6.4163H41.5358L43.6842 7.98605L42.8676 10.5201L44.9996 8.95147Z" fill="#454444"/>
</g>
<g clip-path="url(#clip3_114_475)">
<path d="M68.3554 13.6006L63.9996 10.3993L59.6439 13.6006L61.3163 8.43055L56.9629 5.24963H62.3377L63.9996 0.0708008L65.6616 5.24963H71.0358L66.683 8.43055L68.3554 13.6006ZM63.9996 8.95147L66.1335 10.5201L65.3168 7.98605L67.4629 6.4163H64.8105L63.9996 3.88988L63.1888 6.4163H60.5358L62.6842 7.98605L61.8676 10.5201L63.9996 8.95147Z" fill="#454444"/>
</g>
<g clip-path="url(#clip4_114_475)">
<path d="M87.3554 13.6006L82.9996 10.3993L78.6439 13.6006L80.3163 8.43055L75.9629 5.24963H81.3377L82.9996 0.0708008L84.6616 5.24963H90.0358L85.683 8.43055L87.3554 13.6006ZM82.9996 8.95147L85.1335 10.5201L84.3168 7.98605L86.4629 6.4163H83.8105L82.9996 3.88988L82.1888 6.4163H79.5358L81.6842 7.98605L80.8676 10.5201L82.9996 8.95147Z" fill="#454444"/>
</g>
<path d="M96.2784 7.63636C96.2784 6.5625 96.4176 5.57528 96.696 4.67472C96.9773 3.77131 97.3778 2.94034 97.8977 2.18182H98.7841C98.5795 2.46307 98.3878 2.80966 98.2088 3.22159C98.0327 3.63068 97.8778 4.08097 97.7443 4.57244C97.6108 5.06108 97.5057 5.56676 97.429 6.08949C97.3551 6.61222 97.3182 7.12784 97.3182 7.63636C97.3182 8.3125 97.3835 8.99858 97.5142 9.6946C97.6449 10.3906 97.821 11.0369 98.0426 11.6335C98.2642 12.2301 98.5114 12.7159 98.7841 13.0909H97.8977C97.3778 12.3324 96.9773 11.5028 96.696 10.6023C96.4176 9.69886 96.2784 8.71023 96.2784 7.63636ZM103.319 3.27273V12H102.262V4.38068H102.211L100.081 5.79545V4.72159L102.262 3.27273H103.319ZM105.829 12V11.233L108.71 8.07955C109.048 7.71023 109.326 7.3892 109.545 7.11648C109.764 6.84091 109.926 6.58239 110.031 6.34091C110.139 6.09659 110.193 5.84091 110.193 5.57386C110.193 5.26705 110.119 5.00142 109.971 4.77699C109.826 4.55256 109.627 4.37926 109.375 4.2571C109.122 4.13494 108.838 4.07386 108.522 4.07386C108.187 4.07386 107.895 4.14347 107.645 4.28267C107.397 4.41903 107.206 4.6108 107.069 4.85795C106.936 5.10511 106.869 5.39489 106.869 5.72727H105.863C105.863 5.21591 105.981 4.76705 106.217 4.38068C106.453 3.99432 106.774 3.69318 107.18 3.47727C107.589 3.26136 108.048 3.15341 108.556 3.15341C109.068 3.15341 109.521 3.26136 109.916 3.47727C110.311 3.69318 110.62 3.98437 110.845 4.35085C111.069 4.71733 111.181 5.125 111.181 5.57386C111.181 5.89489 111.123 6.20881 111.007 6.51562C110.893 6.8196 110.694 7.15909 110.41 7.53409C110.129 7.90625 109.738 8.3608 109.238 8.89773L107.278 10.9943V11.0625H111.335V12H105.829ZM116.163 3.27273V12H115.106V4.38068H115.055L112.924 5.79545V4.72159L115.106 3.27273H116.163ZM120.838 7.63636C120.838 8.71023 120.697 9.69886 120.416 10.6023C120.137 11.5028 119.738 12.3324 119.218 13.0909H118.332C118.537 12.8097 118.727 12.4631 118.903 12.0511C119.082 11.642 119.238 11.1932 119.372 10.7045C119.505 10.2131 119.609 9.70597 119.683 9.18324C119.76 8.65767 119.798 8.14205 119.798 7.63636C119.798 6.96023 119.733 6.27415 119.602 5.57812C119.471 4.8821 119.295 4.2358 119.074 3.6392C118.852 3.04261 118.605 2.55682 118.332 2.18182H119.218C119.738 2.94034 120.137 3.77131 120.416 4.67472C120.697 5.57528 120.838 6.5625 120.838 7.63636Z" fill="#454444"/>
<defs>
<clipPath id="clip0_114_475">
<rect width="14" height="14" fill="white"/>
</clipPath>
<clipPath id="clip1_114_475">
<rect width="14" height="14" fill="white" transform="translate(19)"/>
</clipPath>
<clipPath id="clip2_114_475">
<rect width="14" height="14" fill="white" transform="translate(38)"/>
</clipPath>
<clipPath id="clip3_114_475">
<rect width="14" height="14" fill="white" transform="translate(57)"/>
</clipPath>
<clipPath id="clip4_114_475">
<rect width="14" height="14" fill="white" transform="translate(76)"/>
</clipPath>
</defs>
</svg>
